P2
3 4
15
 11   4   0 
 15   5   2 
 14   0   5 
  0   1   4 
