P2
15 15
255
255 255 255 255 255 255 255 255 255 255 255 255 255 255 255
255 255 255 255 255 255 255 255 255 255 255 255 255 255 255
255 255 255 255 255 255 1 1 0 0 0 255 255 255 255
255 255 255 255 255 255 1 197 0 197 0 255 255 255 255
255 255 255 255 255 255 1 1 0 0 0 255 255 255 255
255 255 255 255 255 255 1 197 197 197 0 255 255 255 255
255 255 255 255 255 255 255 0 0 0 255 255 255 255 255
255 255 255 255 255 255 255 0 89 0 255 255 255 255 255
255 255 255 255 255 255 153 0 0 0 153 255 255 255 255
255 255 255 255 255 47 47 255 255 255 47 47 255 255 255
255 255 255 255 255 47 47 255 255 255 47 47 255 255 255
255 255 255 255 255 255 255 255 255 255 255 255 255 255 255
255 255 255 95 95 95 95 95 95 95 95 95 95 95 255
255 255 255 255 255 255 255 255 255 255 255 255 255 255 255
255 255 255 255 255 255 255 255 255 255 255 255 255 255 255