P2
23 7
# with comment
50
0 0 0 0 0 0 0 0 0 0 0 0 0 0 0 0 0 0 0 0 0 0 0
0 0 0 0 0 0 0 0 20 20 20 20 20 0 0 0 0 0 0 0 0 0 0
0 3 0 0 0 3 0 0 0 20 0 0 0 0 0 0 0 50 0 0 0 0 0
0 3 3 0 3 3 0 0 0 20 0 0 0 0 0 0 50 0 50 0 0 0 0
0 3 0 3 0 3 0 0 0 20 0 0 0 0 0 50 50 50 50 50 0 0 0
0 3 0 0 0 3 0 0 0 20 0 0 0 0 50 0 0 0 0 0 50 0 0
0 3 0 0 0 3 0 0 0 20 0 0 0 50 0 0 0 0 0 0 0 50 0