P2
16 15
255
255 255 255 255 255 255 255 255 255 255 255 255 255 255 255 200
255 255 255 255 255 255 255 255 255 255 255 255 255 255 255 180
255 255 255 255 255 255 1 1 0 0 0 255 255 255 255 150
255 255 255 255 255 255 1 197 0 197 0 255 255 255 255 130
255 255 255 255 255 255 1 1 0 0 0 255 255 255 255 110
255 255 255 255 255 255 1 197 197 197 0 255 255 255 255 100
255 255 255 255 255 255 255 0 0 0 255 255 255 255 255 80
255 255 255 255 255 255 255 0 89 0 255 255 255 255 255 75
255 255 255 255 255 255 153 0 0 0 153 255 255 255 255 60
255 255 255 255 255 47 47 255 255 255 47 47 255 255 255 40
255 255 255 255 255 47 47 255 255 255 47 47 255 255 255 30
255 255 255 255 255 255 255 255 255 255 255 255 255 255 255 20
255 255 255 95 95 95 95 95 95 95 95 95 95 95 255 15
255 255 255 255 255 255 255 255 255 255 255 255 255 255 255 10
255 255 255 255 255 255 255 255 255 255 255 255 255 255 255 10